<svg xmlns="http://www.w3.org/2000/svg" width="275.6406" height="120.9744" viewBox="0 0 275.6406 120.9744"><defs><style>.cls-1{fill:#777;}</style></defs><title>addpicture</title><g id="Layer_2" data-name="Layer 2"><g id="Layer_1-2" data-name="Layer 1"><path class="cls-1" d="M144.8155,53.4256H129.906c-13.4931,0-19.2581-5.765-19.2581-19.2581V19.2581C110.6479,5.765,116.4129,0,129.906,0h14.9095c13.493,0,19.258,5.765,19.258,19.2581V34.1675C164.0735,47.6606,158.3085,53.4256,144.8155,53.4256ZM129.906,3.7274c-11.4554,0-15.5307,4.0752-15.5307,15.5307V34.1675c0,11.4555,4.0753,15.5307,15.5307,15.5307h14.9095c11.4554,0,15.5307-4.0752,15.5307-15.5307V19.2581c0-11.4555-4.0753-15.5307-15.5307-15.5307Z"/><path class="cls-1" d="M129.906,23.6066a6.8335,6.8335,0,1,1,6.8335-6.8335A6.83,6.83,0,0,1,129.906,23.6066Zm0-9.94a3.1062,3.1062,0,1,0,3.1061,3.1061A3.1073,3.1073,0,0,0,129.906,13.667Z"/><path class="cls-1" d="M114.1784,45.8468a1.8541,1.8541,0,0,1-1.0188-3.4043l12.2506-8.225a7.4252,7.4252,0,0,1,8.8213.4721l.82.7206a3.6614,3.6614,0,0,0,4.5722,0l10.3373-8.8711a7.42,7.42,0,0,1,9.4426,0l4.05,3.4789a1.8678,1.8678,0,1,1-2.4352,2.8328l-4.05-3.4789a3.6971,3.6971,0,0,0-4.5971,0L142.0341,38.243a7.42,7.42,0,0,1-9.4427,0l-.82-.7206a3.6956,3.6956,0,0,0-4.2988-.1988L115.222,45.5487A2.0194,2.0194,0,0,1,114.1784,45.8468Z"/><path class="cls-1" d="M0,114.8931,7.6343,93.1259h5.9332L21.44,114.8931H17.7414L10.8545,95.5089l1.4609.6843H8.7069l1.5506-.6843L3.5769,114.8931Zm4.95-6.1443,1.1333-3.1013h9.1242l1.1624,3.1013Z"/><path class="cls-1" d="M22.1264,120.9744v-3.0431h1.4608a2.3113,2.3113,0,0,0,1.73-.6115,2.3534,2.3534,0,0,0,.5945-1.7132V98.8189h3.3706v16.4625a7.7659,7.7659,0,0,1-.6115,3.3682,3.5727,3.5727,0,0,1-1.9389,1.7909,9.4709,9.4709,0,0,1-3.4726.5339Zm1.3419-19.4716V98.8189h5.8143v2.6839Zm3.458-5.1009a2.0883,2.0883,0,0,1-1.5943-3.47,2.0311,2.0311,0,0,1,1.5943-.5824,2.0324,2.0324,0,0,1,1.6113.5824,2.3364,2.3364,0,0,1,0,2.9071A2.06,2.06,0,0,1,26.9263,96.4019Z"/><path class="cls-1" d="M41.894,115.427a9.3016,9.3016,0,0,1-3.7273-.6989,8.1559,8.1559,0,0,1-2.713-1.8637,7.9528,7.9528,0,0,1-1.67-2.64,8.4319,8.4319,0,0,1-.5654-3.0576v-.5921a8.3778,8.3778,0,0,1,.58-3.0722A8.1219,8.1219,0,0,1,35.5,100.833a8.0365,8.0365,0,0,1,2.7275-1.8637,9.2946,9.2946,0,0,1,3.6667-.6843,9.2,9.2,0,0,1,3.6546.6843,8.2318,8.2318,0,0,1,2.7276,1.8637,8.0477,8.0477,0,0,1,1.7156,2.6693,8.4276,8.4276,0,0,1,.58,3.0722v.5921a8.4851,8.4851,0,0,1-.5654,3.0576,7.9528,7.9528,0,0,1-1.67,2.64,8.1674,8.1674,0,0,1-2.7154,1.8637A9.2855,9.2855,0,0,1,41.894,115.427Zm0-3.0382a5.1317,5.1317,0,0,0,2.8028-.7328,4.74,4.74,0,0,0,1.7764-1.98,6.3458,6.3458,0,0,0,.6091-2.8052,6.2562,6.2562,0,0,0-.6261-2.8344,4.8332,4.8332,0,0,0-1.7885-1.98,5.611,5.611,0,0,0-5.5449,0,4.8388,4.8388,0,0,0-1.7909,1.98,6.7344,6.7344,0,0,0-.0146,5.64,4.75,4.75,0,0,0,1.7739,1.98A5.1435,5.1435,0,0,0,41.894,112.3888Z"/><path class="cls-1" d="M60.0844,115.3688a5.333,5.333,0,0,1-4.3535-1.8346,8.2984,8.2984,0,0,1-1.5215-5.4115V98.8189h3.4895v9.7794a3.6625,3.6625,0,0,0,.9246,2.64,3.3006,3.3006,0,0,0,2.5043.9706,3.5751,3.5751,0,0,0,2.6378-1.0289,3.8043,3.8043,0,0,0,1.0289-2.82V98.8189h3.49v16.0742H65.51v-6.8577H65.87a11.022,11.022,0,0,1-.643,4.0379,5.1453,5.1453,0,0,1-1.8783,2.4607,5.4411,5.4411,0,0,1-3.1158.8348Z"/><path class="cls-1" d="M71.2665,101.4154V98.8189H82.4777v2.5965Zm8.7966,13.6573a9.26,9.26,0,0,1-3.3706-.5387,3.8941,3.8941,0,0,1-2.0724-1.8491,7.5858,7.5858,0,0,1-.7013-3.5478V94.14h3.31v15.2929a2.6039,2.6039,0,0,0,.6722,1.9268,2.56,2.56,0,0,0,1.8928.67h2.6839v3.043Z"/><path class="cls-1" d="M93.1817,115.427a8.6332,8.6332,0,0,1-3.6376-.7134,7.0977,7.0977,0,0,1-2.5334-1.8928,8.0637,8.0637,0,0,1-1.4779-2.6548,9.5364,9.5364,0,0,1-.49-3.0285v-.563a9.6258,9.6258,0,0,1,.49-3.0576,8.0637,8.0637,0,0,1,1.4779-2.6548,7.0394,7.0394,0,0,1,2.49-1.8782,8.2361,8.2361,0,0,1,3.5016-.6989,7.7171,7.7171,0,0,1,4.3244,1.1308,7.1609,7.1609,0,0,1,2.5941,2.9363,8.8758,8.8758,0,0,1,.8663,3.8924v1.4026H86.5326v-2.3587h11.898l-.9537,1.1939a7.0221,7.0221,0,0,0-.5072-2.7858,3.9851,3.9851,0,0,0-1.4924-1.82,4.4459,4.4459,0,0,0-2.4752-.6407,4.492,4.492,0,0,0-2.5941.7135,4.3045,4.3045,0,0,0-1.5506,1.97,7.8578,7.8578,0,0,0-.5048,2.9509,7.7141,7.7141,0,0,0,.5048,2.878,4.3052,4.3052,0,0,0,1.5822,2,5.5329,5.5329,0,0,0,5.4867,0,2.95,2.95,0,0,0,1.31-1.7181h3.2517a6.44,6.44,0,0,1-1.3274,2.8635,6.5538,6.5538,0,0,1-2.5189,1.8782A8.67,8.67,0,0,1,93.1817,115.427Z"/><path class="cls-1" d="M104.5434,114.8931V98.8189h2.7737v6.7121h-.1189a7.601,7.601,0,0,1,1.5191-5.1736,5.7016,5.7016,0,0,1,4.5039-1.7181h.5654v3.0722H112.714a4.2154,4.2154,0,0,0-4.6811,4.6543v8.5273Z"/><path class="cls-1" d="M129.0236,115.3688a5.336,5.336,0,0,1-4.3534-1.8346,8.2979,8.2979,0,0,1-1.5191-5.4115V98.8189h3.4871v9.7794a3.6625,3.6625,0,0,0,.9246,2.64,3.3006,3.3006,0,0,0,2.5043.9706,3.5807,3.5807,0,0,0,2.64-1.0289,3.8142,3.8142,0,0,0,1.0289-2.82V98.8189h3.4872v16.0742h-2.7713v-6.8577h.3567a11.0763,11.0763,0,0,1-.6406,4.0379,5.1453,5.1453,0,0,1-1.8783,2.4607,5.4411,5.4411,0,0,1-3.1158.8348Z"/><path class="cls-1" d="M142.414,114.8931V98.8189h2.7713v6.8869h-.3276a11.1021,11.1021,0,0,1,.6406-4.0235,5.0682,5.0682,0,0,1,1.9535-2.49,5.8527,5.8527,0,0,1,3.2517-.8494h.148a5.2818,5.2818,0,0,1,4.4433,1.8783,8.81,8.81,0,0,1,1.4608,5.4843v9.1873h-3.4895V105.23a3.8113,3.8113,0,0,0-.9537-2.6984,3.4087,3.4087,0,0,0-2.6232-1.0289,3.6917,3.6917,0,0,0-2.7446,1.058,3.8426,3.8426,0,0,0-1.0435,2.82v9.5125Z"/><path class="cls-1" d="M168.6245,115.427a8.6175,8.6175,0,0,1-3.6376-.7134,7.1065,7.1065,0,0,1-2.5359-1.8928,8.1008,8.1008,0,0,1-1.4754-2.6548,9.539,9.539,0,0,1-.4926-3.0285v-.563a9.6279,9.6279,0,0,1,.4926-3.0576,8.1008,8.1008,0,0,1,1.4754-2.6548,7.0394,7.0394,0,0,1,2.49-1.8782,8.2475,8.2475,0,0,1,3.5041-.6989,7.717,7.717,0,0,1,4.3243,1.1308,7.1773,7.1773,0,0,1,2.5941,2.9363,8.9076,8.9076,0,0,1,.8639,3.8924v1.4026H161.973v-2.3587h11.8979l-.9537,1.1939a7.0239,7.0239,0,0,0-.5071-2.7858,3.9811,3.9811,0,0,0-1.49-1.82,4.4461,4.4461,0,0,0-2.4752-.6407,4.4916,4.4916,0,0,0-2.5941.7135,4.2732,4.2732,0,0,0-1.5507,1.97,7.8563,7.8563,0,0,0-.5071,2.9509,7.7136,7.7136,0,0,0,.5071,2.878,4.2857,4.2857,0,0,0,1.58,2,5.5329,5.5329,0,0,0,5.4867,0,2.9642,2.9642,0,0,0,1.3128-1.7181h3.2493a6.4143,6.4143,0,0,1-1.3273,2.8635,6.52,6.52,0,0,1-2.5189,1.8782A8.6666,8.6666,0,0,1,168.6245,115.427Z"/><path class="cls-1" d="M186.6037,120.8579V98.8189h2.7736v6.95l-.5362-.0292a9.6209,9.6209,0,0,1,1.075-4.1787,6.0281,6.0281,0,0,1,2.4412-2.4412,7.02,7.02,0,0,1,3.344-.8057,7.4591,7.4591,0,0,1,3.13.6407,7.2839,7.2839,0,0,1,2.4121,1.7714,7.7013,7.7013,0,0,1,1.5385,2.6257,9.775,9.775,0,0,1,.5193,3.2226v.563a9.57,9.57,0,0,1-.5339,3.2081,7.9421,7.9421,0,0,1-1.5531,2.64,7.4611,7.4611,0,0,1-2.4121,1.786,7.7084,7.7084,0,0,1-6.4112-.0874,6.0309,6.0309,0,0,1-2.5092-2.3878,9.0329,9.0329,0,0,1-1.1017-4.2612l1.31,2.2034v10.6191Zm8.321-8.44a4.5579,4.5579,0,0,0,4.2758-2.6693,6.613,6.613,0,0,0,.6115-2.9072,6.5185,6.5185,0,0,0-.6115-2.8926,4.7438,4.7438,0,0,0-1.6987-1.9558,4.6532,4.6532,0,0,0-2.5771-.6989,5.18,5.18,0,0,0-2.4461.5969,4.6411,4.6411,0,0,0-1.82,1.7133,5.0781,5.0781,0,0,0-.6843,2.6984v1.2813a4.7255,4.7255,0,0,0,.6989,2.6111,4.5618,4.5618,0,0,0,1.8346,1.655A5.3323,5.3323,0,0,0,194.9247,112.4179Z"/><path class="cls-1" d="M207.2983,114.8931V93.1259h3.4871v12.8516h-.7134a12.2307,12.2307,0,0,1,.6091-4.101,5.3,5.3,0,0,1,1.8807-2.6257,5.3545,5.3545,0,0,1,3.2056-.9076h.148a5.0325,5.0325,0,0,1,4.2782,1.9074A8.9423,8.9423,0,0,1,221.64,105.74v9.1534h-3.4871V105.23a3.692,3.692,0,0,0-1-2.7275,3.4982,3.4982,0,0,0-2.5795-1,3.5448,3.5448,0,0,0-2.7422,1.1356,4.2158,4.2158,0,0,0-1.0459,2.98v9.2747Z"/><path class="cls-1" d="M234.0475,115.427a9.2858,9.2858,0,0,1-3.7274-.6989,8.143,8.143,0,0,1-2.7154-1.8637,7.9528,7.9528,0,0,1-1.67-2.64,8.4851,8.4851,0,0,1-.5654-3.0576v-.5921a8.43,8.43,0,0,1,.58-3.0722,8.1642,8.1642,0,0,1,1.7011-2.6693,8.0379,8.0379,0,0,1,2.7276-1.8637,9.3064,9.3064,0,0,1,3.6691-.6843,9.1871,9.1871,0,0,1,3.6521.6843,8.2318,8.2318,0,0,1,2.7276,1.8637,8.05,8.05,0,0,1,1.7157,2.6693,8.38,8.38,0,0,1,.58,3.0722v.5921a8.483,8.483,0,0,1-.5654,3.0576,7.9509,7.9509,0,0,1-1.6695,2.64,8.1569,8.1569,0,0,1-2.713,1.8637A9.3025,9.3025,0,0,1,234.0475,115.427Zm0-3.0382a5.1432,5.1432,0,0,0,2.8028-.7328,4.75,4.75,0,0,0,1.7739-1.98,6.7344,6.7344,0,0,0-.0146-5.64,4.8392,4.8392,0,0,0-1.7908-1.98,5.6112,5.6112,0,0,0-5.545,0,4.8329,4.8329,0,0,0-1.7884,1.98,6.7464,6.7464,0,0,0-.017,5.64,4.7393,4.7393,0,0,0,1.7763,1.98A5.1319,5.1319,0,0,0,234.0475,112.3888Z"/><path class="cls-1" d="M244.5113,101.4154V98.8189h11.2136v2.5965Zm8.7967,13.6573a9.2459,9.2459,0,0,1-3.3682-.5387,3.8941,3.8941,0,0,1-2.0724-1.8491,7.5548,7.5548,0,0,1-.7013-3.5478V94.14h3.31v15.2929a2.6043,2.6043,0,0,0,.6721,1.9268,2.56,2.56,0,0,0,1.8928.67h2.6839v3.043Z"/><path class="cls-1" d="M266.9653,115.427a9.2858,9.2858,0,0,1-3.7274-.6989,8.143,8.143,0,0,1-2.7154-1.8637,7.9528,7.9528,0,0,1-1.67-2.64,8.4851,8.4851,0,0,1-.5654-3.0576v-.5921a8.4276,8.4276,0,0,1,.58-3.0722,8.1626,8.1626,0,0,1,1.7011-2.6693,8.0379,8.0379,0,0,1,2.7276-1.8637,9.3064,9.3064,0,0,1,3.6691-.6843,9.1877,9.1877,0,0,1,3.6521.6843,8.2318,8.2318,0,0,1,2.7276,1.8637,8.05,8.05,0,0,1,1.7157,2.6693,8.38,8.38,0,0,1,.58,3.0722v.5921a8.4851,8.4851,0,0,1-.5654,3.0576,7.9525,7.9525,0,0,1-1.6695,2.64,8.1574,8.1574,0,0,1-2.7131,1.8637A9.3016,9.3016,0,0,1,266.9653,115.427Zm0-3.0382a5.1435,5.1435,0,0,0,2.8028-.7328,4.75,4.75,0,0,0,1.7739-1.98,6.7344,6.7344,0,0,0-.0146-5.64,4.8388,4.8388,0,0,0-1.7909-1.98,5.611,5.611,0,0,0-5.5449,0,4.8339,4.8339,0,0,0-1.7885,1.98,6.7469,6.7469,0,0,0-.0169,5.64,4.7386,4.7386,0,0,0,1.7763,1.98A5.1319,5.1319,0,0,0,266.9653,112.3888Z"/></g></g></svg>