<svg xmlns="http://www.w3.org/2000/svg" xmlns:xlink="http://www.w3.org/1999/xlink" width="60" height="60" viewBox="0 0 60 60">
  <defs>
    <clipPath id="clip-path">
      <rect id="Rectangle_22" data-name="Rectangle 22" width="60" height="60" transform="translate(262 993)" fill="#ff4d33"/>
    </clipPath>
  </defs>
  <g id="Mask_Group_6" data-name="Mask Group 6" transform="translate(-262 -993)" clip-path="url(#clip-path)">
    <g id="location" transform="translate(262 993.027)">
      <path id="Path_2076" data-name="Path 2076" d="M60.157,27.877a.967.967,0,0,0,.059-.294,1.006,1.006,0,0,0-.05-.312l-.078-.219A30.073,30.073,0,0,0,49.139,6.806c-.442-.36-.9-.686-1.367-1.02-.023-.019-.035-.046-.06-.064s-.045-.016-.066-.029A30.222,30.222,0,0,0,30.093.033c-.259,0-.52,0-.714.02a29.464,29.464,0,0,0-9.826,1.89,9.039,9.039,0,0,0-14.6,7.139,9.55,9.55,0,0,0,.789,3.333,30.228,30.228,0,0,0-2.7,4.449c-.015.024-.024.05-.037.075a30.165,30.165,0,0,0,53.64,27.573,29.7,29.7,0,0,0,3.567-12.84c.031-.485.042-.979.042-1.474,0-.779-.04-1.551-.1-2.321Zm-2.922-5.16c-.128-.113-.245-.244-.379-.349a13.251,13.251,0,0,0-4.39-2.193,9.451,9.451,0,0,0-4.409-.046,8.692,8.692,0,0,1-3.756.019c-2.4-.525-4.3-.939-5.311-2.548-1.443-2.313-.766-5.564.756-6.708a2.294,2.294,0,0,1,1.72-.367A6.428,6.428,0,0,0,44.584,10,8.079,8.079,0,0,0,47.3,7.934c.19.147.391.279.577.431a28.115,28.115,0,0,1,9.359,14.353ZM14.005,2.045a7.049,7.049,0,0,1,7.038,7.038c0,3.008-4.517,9.893-7.038,13.384A63.19,63.19,0,0,1,7.8,12.16a8.381,8.381,0,0,1-.836-3.077,7.046,7.046,0,0,1,7.038-7.038ZM1.939,30.2A28.47,28.47,0,0,1,2.5,24.619c.108,1.4.29,2.641.453,3.72.623,4.123,1.212,8.009,4.25,11.563,1.271,1.5,3.4,4,6.688,4.371s7.41-1.522,8.6-2.112l.457-.23a4.422,4.422,0,0,1,2.1-.673,4.959,4.959,0,0,1,3.29,1.68c1.716,1.9,2.151,5.071.932,6.787A3.088,3.088,0,0,1,27.729,50.8a4.7,4.7,0,0,0-2.522,2.011,6.209,6.209,0,0,0-.435,5.027A28.2,28.2,0,0,1,1.939,30.2ZM30.093,58.352a28.358,28.358,0,0,1-2.909-.15,3.56,3.56,0,0,1-.229-.33,4.279,4.279,0,0,1-.019-4.034,2.774,2.774,0,0,1,1.579-1.188,5.01,5.01,0,0,0,2.4-1.761c1.749-2.459,1.254-6.72-1.076-9.3a6.9,6.9,0,0,0-4.763-2.346h-.045a6.094,6.094,0,0,0-3,.892l-.429.217c-2.2,1.083-5.323,2.154-7.487,1.91-2.5-.279-4.231-2.323-5.381-3.676C6.07,35.474,5.548,32.025,4.945,28.033a28.912,28.912,0,0,1-.077-10.342A28.2,28.2,0,0,1,6.69,14.535c.033.067.07.135.1.2.064.128.131.254.2.382l.3.571q.1.193.211.387.16.286.323.573c.073.127.145.254.218.38q.168.286.337.571c.074.125.148.248.223.372.119.2.239.389.358.583.068.11.136.221.2.33.149.239.3.47.444.7.039.06.079.124.117.183q.276.428.546.835c.068.1.135.2.2.3.11.166.221.332.328.49l.239.349c.086.128.174.255.258.377l.241.347c.075.108.149.214.22.315s.152.217.226.32l.184.259.2.277.164.227.16.22.131.177.123.167.073.1c.09.122.158.213.177.238a1,1,0,0,0,1.608,0c.844-1.119,8.247-11.044,8.247-15.692,0-.294-.018-.585-.046-.875-.009-.089-.023-.179-.034-.268-.026-.2-.057-.4-.1-.6-.019-.1-.04-.195-.062-.292q-.07-.3-.162-.6c-.025-.081-.046-.162-.073-.241-.09-.27-.192-.536-.307-.8-.022-.05-.049-.1-.072-.146-.1-.209-.2-.416-.317-.619-.05-.09-.106-.178-.16-.267q-.145-.238-.3-.468c-.062-.089-.126-.179-.191-.267-.034-.044-.063-.091-.1-.135A27.458,27.458,0,0,1,27.59,2.165c-1.568,2.959-2.08,5.7-1.494,8.145a10.484,10.484,0,0,0,2.414,4.4c.946,1.171,1.627,2.016,1.584,3.394-.086,2.916-3.379,5.343-4.625,6.26a17.315,17.315,0,0,1-5.4,2.608c-1.826.6-3.4,1.111-4,2.909a5.732,5.732,0,0,0,2.435,6.2,5.079,5.079,0,0,0,4.007.354,12.368,12.368,0,0,1,4.437-.212c1.91.271,3.558.5,4.339,1.6.463.653.439,1.329.349,2.568a12.182,12.182,0,0,0,.521,5.211c.459,1.376,1.151,3.453,2.816,3.693a2.081,2.081,0,0,0,.326.026c1.178,0,1.9-1.04,2.657-2.134.335-.484.7-1.005,1.146-1.529,2.069,3.343,4.172,6.134,4.269,6.266a1.006,1.006,0,0,0,1.609,0,83.591,83.591,0,0,0,5.951-9.164,13.213,13.213,0,0,1,3.492,1.592,28.108,28.108,0,0,1-24.326,14ZM48.86,30.99a7.021,7.021,0,0,1,2.348,5.241c0,.723-.294,2.157-1.688,4.88a74.944,74.944,0,0,1-5.35,8.5c-.946-1.318-2.574-3.658-4.031-6.117a37.178,37.178,0,0,1-2.172-4.186,8.381,8.381,0,0,1-.836-3.077,7.046,7.046,0,0,1,7.038-7.038q.326,0,.648.029A6.976,6.976,0,0,1,48.86,30.99Zm9.351.579a27.7,27.7,0,0,1-2.831,11,15.293,15.293,0,0,0-3.531-1.645,11.912,11.912,0,0,0,1.37-4.7A9.087,9.087,0,0,0,48.154,28.1l-.063-.028c-.225-.109-.453-.21-.686-.3-.16-.062-.326-.111-.49-.163-.1-.03-.191-.068-.289-.1-.259-.074-.523-.134-.788-.183h-.013c-.161-.03-.324-.046-.487-.067a8.986,8.986,0,0,0-10.218,8.97,10.352,10.352,0,0,0,1,3.864,37.1,37.1,0,0,0,1.9,3.745,18.534,18.534,0,0,0-1.722,2.2A5.234,5.234,0,0,1,35.264,47.3c-.2-.03-.574-.46-1.207-2.341a10.315,10.315,0,0,1-.423-4.43,5.378,5.378,0,0,0-.718-3.881c-1.284-1.8-3.525-2.112-5.706-2.421a14.167,14.167,0,0,0-5.086.228c-1.286.246-1.883.338-2.566-.088a3.811,3.811,0,0,1-1.589-3.854c.269-.8,1.073-1.095,2.715-1.634a19.3,19.3,0,0,0,5.974-2.9c1.465-1.075,5.329-3.927,5.446-7.818.064-2.129-1-3.442-2.03-4.712a8.7,8.7,0,0,1-2.019-3.595c-.534-2.24.128-4.867,1.923-7.812h.115a28.221,28.221,0,0,1,15.56,4.7,6.04,6.04,0,0,1-1.9,1.419,4.5,4.5,0,0,1-2.228.349,4.217,4.217,0,0,0-2.988.768c-2.28,1.716-3.3,6.093-1.252,9.38,1.459,2.33,3.95,2.873,6.671,3.466a10.527,10.527,0,0,0,4.44-.019,7.585,7.585,0,0,1,3.568.011,11.2,11.2,0,0,1,3.65,1.827,8.234,8.234,0,0,1,2.5,3.565c.082.888.134,1.779.134,2.684,0,.45-.009.9-.039,1.371Zm0,0" transform="translate(0.007 -0.032)" fill="#ff4d33"/>
      <path id="Path_2077" data-name="Path 2077" d="M15.619,12.749A4.022,4.022,0,1,0,11.6,8.727,4.022,4.022,0,0,0,15.619,12.749Zm0-6.033a2.011,2.011,0,1,1-2.011,2.011A2.011,2.011,0,0,1,15.619,6.716Zm0,0" transform="translate(-1.607 -0.682)" fill="#ff4d33"/>
      <path id="Path_2078" data-name="Path 2078" d="M46.635,40.261a4.022,4.022,0,1,0,4.022-4.022A4.022,4.022,0,0,0,46.635,40.261Zm6.033,0a2.011,2.011,0,1,1-2.011-2.011A2.011,2.011,0,0,1,52.667,40.261Zm0,0" transform="translate(-6.48 -5.068)" fill="#ff4d33"/>
    </g>
  </g>
</svg>
