<svg xmlns="http://www.w3.org/2000/svg" width="780.2184" height="242.8071" viewBox="0 0 780.2184 242.8071"><defs><style>.cls-1{fill:#ff4d33;stroke:#ff4d33;stroke-miterlimit:10;stroke-width:4px;}</style></defs><title>rihla</title><g id="Layer_2" data-name="Layer 2"><g id="Layer_1-2" data-name="Layer 1"><path class="cls-1" d="M27.5656,131.3871c.14,1.4.33,2.79.54,4.17C27.8956,134.1671,27.7156,132.7871,27.5656,131.3871Zm1.01-27.66a3.0618,3.0618,0,0,0-.05.32c.1-.58.21-1.16.33-1.75C28.7556,102.7671,28.6656,103.2471,28.5756,103.7271Zm3.59,48.23c.42,1.25.87,2.48,1.36,3.7C33.0456,154.4371,32.5956,153.1971,32.1656,151.9571Zm-4.24-44.25c-.09.64-.17,1.28-.25,1.92.16-1.28.34-2.55.54-3.82C28.1056,106.4371,28.0156,107.0671,27.9256,107.7071Zm4.24,44.25c.42,1.25.87,2.48,1.36,3.7C33.0456,154.4371,32.5956,153.1971,32.1656,151.9571Zm-4.6-20.57c.14,1.4.33,2.79.54,4.17C27.8956,134.1671,27.7156,132.7871,27.5656,131.3871Z"/><path class="cls-1" d="M119.8056,14.7671a12.514,12.514,0,0,1-10.17,12.02c-.02,0-.04.01-.06.01-.37.05-.73.09-1.1.15a.7772.7772,0,0,1-.16.02c-.49.07-.96.14-1.45.22-.02,0-.04.01-.06.01-.7.11-1.4.23-2.09.36-.55.1-1.11.21-1.66.32-.61.12-1.21.25-1.81.39-.4.08-.8.17-1.19.27l-.12.03c-.48.11-.96.22-1.43.35q-.87.21-1.71.45a.5638.5638,0,0,0-.12.04c-.5.13-1,.27-1.49.42-.12.03-.24.07-.37.11-.45.13-.9.26-1.34.41-.92.29-1.83.59-2.74.91-.35.11-.7.23-1.04.37a.88.88,0,0,0-.15.05c-.28.1-.56.2-.83.31-.22.07-.43.15-.64.24-.22.08-.43.16-.64.25-.19.07-.37.14-.55.21q-.84.33-1.68.69-.87.36-1.74.75c-.82.36-1.62.73-2.42,1.12-.01,0-.02.01-.03.02-.47.21-.94.44-1.4.68-.59.29-1.18.59-1.76.9-.05.02-.1.05-.14.07a2.247,2.247,0,0,0-.21.12c-.46.23-.91.48-1.36.73-.14.08-.29.16-.43.24-.45.25-.9.5-1.34.76-.14.08-.27.16-.4.24q-.765.435-1.5.9c-.58.35-1.16.71-1.73,1.08q-.795.495-1.56,1.02c-.16.11-.32.22-.48.32-.12.08-.24.17-.36.25l-.09.06c-.3.21-.59.41-.88.62q-.93.645-1.83,1.32c-.33.25-.67.49-.99.74-.33.24-.66.49-.98.76-.33.25-.66.5-.98.77l-.96.78c-.64.52-1.27,1.05-1.89,1.6-.62.54-1.24,1.09-1.85,1.65q-2.25,2.04-4.35,4.23v.01c-.44.46-.87.92-1.31,1.39-.28.29-.55.59-.81.89-.07.07-.14.15-.21.23-.09.09-.17.19-.26.29-.07.09-.15.17-.23.26-.88.99-1.73,2-2.55,3.02-.86,1.05-1.69,2.11-2.48,3.2-.21.27-.41.54-.6.82-.2.27-.4.55-.6.83-.18.24-.35.49-.53.74-.17.26-.36.53-.54.79l-.12.18c-.38.54-.74,1.09-1.09,1.65-.38.57-.74,1.14-1.09,1.72q-.54.855-1.05,1.74-.525.885-1.02,1.77c-.3.52-.59,1.05-.86,1.58-.27.49-.53.98-.77,1.47a.2506.2506,0,0,0-.04.07l-.03.06c-.04.08-.08.15-.12.23-.07.15-.14.3-.22.44-.26.53-.52,1.06-.78,1.6-.6,1.23-1.16,2.48-1.69,3.74-.54,1.26-1.05,2.54-1.53,3.83-.31.8-.6,1.61-.87,2.42-.15.41-.28.81-.41,1.22-.14.41-.26.82-.39,1.23-.51,1.59-.96,3.19-1.37,4.81,0,.01-.01.02-.01.03-.01.05-.03.1-.04.15a1.0462,1.0462,0,0,1-.04.17c-.01.04-.02.09-.03.13-.16.59-.3,1.18-.43,1.78-.16.68-.31,1.37-.45,2.06-.15.69-.28,1.38-.4,2.07a3.7833,3.7833,0,0,0-.1.57c-.01.06-.03.12-.04.18,0,.03-.01.05-.01.08-.08.41-.15.83-.21,1.25-.11.63-.2,1.26-.29,1.9s-.17,1.28-.25,1.92c-.1.74-.18,1.5-.24,2.25-.08.75-.14,1.5-.19,2.26-.06.76-.1,1.51-.14,2.27s-.06,1.52-.08,2.28-.03,1.53-.03,2.3c0,.72.01,1.44.03,2.15.01.64.03,1.27.06,1.9v.04q.03.825.09,1.65c.01.38.04.75.07,1.12.01.28.04.57.07.85.02.38.05.75.09,1.12.04.52.1,1.05.16,1.57.14,1.4.33,2.79.54,4.17.11.69.22,1.38.34,2.06.11.59.22,1.18.33,1.76.02.12.05.25.07.37.09.45.19.91.29,1.36.05.28.11.55.18.83.12.54.25,1.09.38,1.63.03.12.06.23.09.34.13.56.28,1.12.43,1.68.03.13.06.26.1.38.15.55.3,1.1.46,1.64.06.21.12.41.19.61.14.49.28.97.44,1.44.24.77.49,1.54.76,2.3.42,1.25.87,2.48,1.36,3.7a93.9164,93.9164,0,0,0,6.13,12.74l.06.12a12.503,12.503,0,0,1-21.22,13.18.4348.4348,0,0,0-.04-.07q-.465-.78-.9-1.56a.925.925,0,0,0-.05-.1,119.8807,119.8807,0,0,1-15.48-56.51c-1.26-60.93,44.11-112.83,103.08-121.26.39-.06.78-.12,1.18-.16a12.5433,12.5433,0,0,1,13.49,11.45.4484.4484,0,0,0,.01.11Z"/><path class="cls-1" d="M232.9256,109.1971a12.2714,12.2714,0,0,0-4.05-.47l-1.58.18a12.507,12.507,0,0,0-10.3,12.05.0187.0187,0,0,0,0,.03c0,.15,0,.3-.01.45.01.6,0,1.19-.02,1.79v.02c0,.19-.01.38-.02.57a1.8484,1.8484,0,0,1-.01.23v.12a2.62,2.62,0,0,1-.01.28c0,.19-.01.39-.02.59,0,.23-.01.45-.03.68-.01.23-.02.47-.04.71a1.695,1.695,0,0,1-.01.22c-.01.2-.02.4-.04.6,0,.1-.01.2-.02.31v.1c-.01.08-.01.16-.02.25-.01.12-.02.25-.03.37,0,.12-.02.25-.03.37-.01.19-.03.38-.05.58-.02.31-.05.61-.08.92q-.03.435-.09.87c-.06.64-.13,1.27-.22,1.9.01.02,0,.03,0,.04a.0367.0367,0,0,1-.01.03.0139.0139,0,0,1,0,.02c-.08.65-.16,1.29-.27,1.93a1.8815,1.8815,0,0,1-.05.33.0821.0821,0,0,1-.01.07c-.07.52-.15,1.04-.25,1.55a2.2542,2.2542,0,0,1-.06.36c-.03.21-.06.41-.1.61-.06.32-.12.64-.19.96q-.09.555-.21,1.11c-.13.67-.27,1.33-.43,1.99-.03.14-.06.29-.09.43-.09.39-.18.77-.28,1.16-.1.42-.21.84-.32,1.26-.31,1.22-.65,2.44-1.02,3.64q-.69,2.28-1.5,4.52l-.09.24c-.01.04-.03.08-.04.12a.6117.6117,0,0,1-.05.12c-.17.5-.36.99-.55,1.48-.16.45-.34.9-.53,1.35-.17.45-.35.9-.54,1.34-.19.49-.4.97-.62,1.45-.22.53-.46,1.06-.7,1.58-.28.62-.57,1.23-.86,1.83q-1.035,2.145-2.18,4.22c-.34.62-.68,1.23-1.03,1.83-.17.3-.35.59-.52.89-.06.1-.12.21-.19.31-.21.37-.43.73-.65,1.09-.13.2-.25.41-.38.61-.42.66-.84,1.32-1.27,1.98-.28.43-.56.85-.86,1.27-.29.42-.58.84-.88,1.26-.28.42-.58.83-.89,1.24s-.61.82-.92,1.23c-.39.51-.78,1.02-1.19,1.52-.23.3-.47.59-.71.88-.3.4-.63.79-.97,1.18-.33.39-.66.78-1,1.17-.46.53-.92,1.05-1.4,1.57-.44.49-.88.97-1.34,1.44-.42.45-.85.89-1.29,1.33-.54.55-1.08,1.09-1.63,1.63-.53.52-1.07,1.04-1.62,1.54a.5008.5008,0,0,1-.08.07q-.825.78-1.68,1.53c-.42.38-.85.75-1.28,1.11-.27.23-.54.46-.81.68-.48.41-.96.8-1.45,1.19q-.69.555-1.38,1.08c-.51.4-1.01.78-1.53,1.16-.36.27-.72.53-1.08.79-.41.3-.82.59-1.24.87-.19.14-.37.27-.56.39-.52.36-1.05.72-1.59,1.06a.9392.9392,0,0,1-.18.12c-.42.28-.85.55-1.28.82-.47.3-.95.6-1.43.88-.48.3-.96.58-1.44.86-.5.29-1.01.58-1.51.85q-.24.15-.48.27c-.56.31-1.13.61-1.7.91a2.1017,2.1017,0,0,1-.26.13q-.705.375-1.41.72c-.42.21-.84.42-1.27.62-.25.12-.51.25-.78.37-.55.26-1.11.52-1.68.76q-.12.06-.27.12-1.035.465-2.1.9h-.02c-.61.26-1.22.51-1.84.74-.24.09-.47.18-.72.27-.49.2-.99.38-1.49.55-.19.07-.38.14-.58.21-.66.24-1.33.46-2.01.68-.07.02-.14.05-.22.07-.57.19-1.14.37-1.72.54q-.93.285-1.89.54-.645.195-1.29.36c-.34.09-.68.18-1.02.26-.47.12-.95.24-1.43.35-.7.17-1.4.32-2.11.47-.76.17-1.53.32-2.3.46-.81.15-1.62.29-2.44.42-.66.11-1.31.2-1.98.29-.98.14-1.96.26-2.95.36-.83.09-1.66.17-2.49.23q-.69.06-1.38.09c-.42.04-.84.06-1.25.08-1.65.09-3.3.13-4.96.13a94.65,94.65,0,0,1-38.77-8.25l18.52-30.25a59.2119,59.2119,0,0,0,12.95,3.06,60.6324,60.6324,0,0,0,7.3.44,59.9551,59.9551,0,0,0,60-60,60.4469,60.4469,0,0,0-2.21-16.18l31.39-16.65,9.69-5.14,2.12-1.12a12.449,12.449,0,0,0,5.96-6.6c.1-.28.2-.57.28-.86a12.5575,12.5575,0,0,0-.41-8.14l-1.3-2.47-.01-.01a12.6377,12.6377,0,0,0-12.48-5.34,12.45,12.45,0,0,0-3.83,1.37l-1.27.67c-.01,0-.01,0-.01.01l-10.4,5.51-31.35,16.62a59.8871,59.8871,0,0,0-46.17-21.67c-.41,0-.82,0-1.23.02a59.99,59.99,0,0,0-46.91,95.8,61.5051,61.5051,0,0,0,6.63,7.52l-18.54,30.28-13.5,22.05,10.66,6.53,1.35.82q4.74,2.835,9.64,5.17a118.886,118.886,0,0,0,51.44,11.63c40.43,0,80.1-20.27,102.66-56.93a119.9641,119.9641,0,0,0,17.8-62.56v-.34A12.5252,12.5252,0,0,0,232.9256,109.1971Zm-145.51,6.36a35.0362,35.0362,0,0,1,33.86-29.56c.24-.01.48-.01.72-.01a34.9739,34.9739,0,1,1-34.58,29.57Z"/><path class="cls-1" d="M166.9289,22.0263a12.5,12.5,0,1,1-8.5824-15.4545A12.5,12.5,0,0,1,166.9289,22.0263Z"/><circle class="cls-1" cx="186.4682" cy="34.8954" r="12.5" transform="translate(27.8015 138.8808) rotate(-43.8393)"/><path d="M319.9613,192.8825V60.2412h54.5723q17.6232,0,30.2231,5.59a43.256,43.256,0,0,1,19.4226,16.2008q6.8217,10.6141,6.8212,25.3915,0,14.5938-6.8212,25.0127a44.2762,44.2762,0,0,1-19.4226,16.1059q-12.6033,5.6855-30.2231,5.685h-40.74l10.8015-10.99v49.6457ZM344.5952,145.89l-10.8015-11.9378h39.6036q16.2939,0,24.5381-7.0111,8.2428-7.0079,8.2423-19.5175,0-12.5059-8.2423-19.4226-8.2428-6.9147-24.5381-6.9162H333.7937l10.8015-12.1266Zm62.1511,46.9925-33.5388-48.13h26.3388l33.7287,48.13Z"/><path d="M468.1389,75.021a14.9271,14.9271,0,0,1-10.8955-4.1682,13.7465,13.7465,0,0,1-4.264-10.2329,13.3269,13.3269,0,0,1,4.264-9.8532,14.9391,14.9391,0,0,1,10.8955-4.1681,15.5637,15.5637,0,0,1,10.8955,3.8843,12.8586,12.8586,0,0,1,4.263,9.9482,14.2314,14.2314,0,0,1-4.1681,10.3268A14.6814,14.6814,0,0,1,468.1389,75.021ZM456.39,192.8825V91.6964h23.4967V192.8825Z"/><path d="M568.3747,90.3694a47.5322,47.5322,0,0,1,21.696,4.7377,35.42,35.42,0,0,1,14.97,14.5909q5.5868,9.8541,5.59,25.2016v57.9829H586.9449v-54.951q0-13.4532-6.2537-20.0861-6.2522-6.63-17.8117-6.6324a31.0951,31.0951,0,0,0-14.78,3.4116,23.3776,23.3776,0,0,0-9.9481,10.137q-3.509,6.7289-3.5056,16.9593v51.1616H511.1493v-140.6H534.646v66.8888l-4.9266-8.5262a35.2789,35.2789,0,0,1,15.2535-14.97A49.752,49.752,0,0,1,568.3747,90.3694Z"/><path d="M640.9476,192.8825v-140.6h23.4967v140.6Z"/><path d="M726.0249,194.2086a47.6125,47.6125,0,0,1-19.8963-3.8843A30.7065,30.7065,0,0,1,692.96,179.5237a27.3921,27.3921,0,0,1-4.6428-15.6331,29.3374,29.3374,0,0,1,4.0742-15.3484q4.0726-6.8219,13.3588-10.8006,9.2817-3.98,24.633-3.9792h29.3706V149.49H732.0887q-11.9378,0-16.2009,3.8853a12.6442,12.6442,0,0,0-4.264,9.7583,11.8979,11.8979,0,0,0,5.1165,10.043q5.1159,3.7923,14.2112,3.7894a30.7852,30.7852,0,0,0,15.6331-3.9792,23.4906,23.4906,0,0,0,10.137-11.7479l3.79,14.2112a26.4053,26.4053,0,0,1-12.1276,13.8324Q739.6664,194.2121,726.0249,194.2086Zm31.8339-1.3261V172.2288l-1.1372-4.1691V132.2464q0-10.4193-6.3476-16.2008-6.351-5.7785-19.2327-5.78a52.9561,52.9561,0,0,0-16.4856,2.6532,43.6278,43.6278,0,0,0-14.0223,7.39l-9.2846-17.2431a59.7472,59.7472,0,0,1,19.5175-9.4745,83.7847,83.7847,0,0,1,23.3069-3.2217q22.17,0,34.1074,10.6116,11.9377,10.6142,11.9378,32.5915v59.31Z"/></g></g></svg>