<svg xmlns="http://www.w3.org/2000/svg" width="35.414" height="59.023" viewBox="0 0 35.414 59.023">
  <g id="Group_8" data-name="Group 8" transform="translate(-591.805 -994)">
    <path id="Shape" d="M3.935,53.121V55.58a3.443,3.443,0,1,0,6.886,0V53.121H24.593V55.58a3.443,3.443,0,1,0,6.886,0V53.121a3.935,3.935,0,0,0,3.935-3.935V22.626a6.894,6.894,0,0,0-6.886-6.886V10.054a2.936,2.936,0,0,0,.984-2.184V2.951A2.951,2.951,0,0,0,26.56,0H8.853A2.951,2.951,0,0,0,5.9,2.951V7.87a2.936,2.936,0,0,0,.984,2.184v5.686A6.894,6.894,0,0,0,0,22.626v26.56A3.935,3.935,0,0,0,3.935,53.121ZM8.853,55.58a1.476,1.476,0,0,1-2.951,0V53.121H8.853Zm20.658,0a1.476,1.476,0,0,1-2.951,0V53.121h2.951Zm1.967-4.427H3.935a1.967,1.967,0,0,1-1.967-1.967V47.218H33.446v1.967A1.967,1.967,0,0,1,31.479,51.153ZM26.56,15.739H24.593V10.821H26.56Zm-13.772,0V10.054a2.936,2.936,0,0,0,.984-2.184V6.886h7.87V7.87a2.936,2.936,0,0,0,.984,2.184v5.686ZM9.837,24.016,11.8,25.984v5.5H7.87v-5.5ZM7.87,2.951a.984.984,0,0,1,.984-.984H26.56a.984.984,0,0,1,.984.984V7.87a.984.984,0,0,1-.984.984H24.593a.984.984,0,0,1-.984-.984V5.9a.984.984,0,0,0-.984-.984H12.788A.984.984,0,0,0,11.8,5.9V7.87a.984.984,0,0,1-.984.984H8.853A.984.984,0,0,1,7.87,7.87Zm.984,7.87h1.967v4.919H8.853ZM6.886,17.707H8.853v4.511L6.479,24.593A1.954,1.954,0,0,0,5.9,25.984v5.5A1.967,1.967,0,0,0,7.87,33.446H11.8a1.967,1.967,0,0,0,1.967-1.967v-5.5a1.954,1.954,0,0,0-.576-1.391l-2.375-2.375V17.707H28.528a4.924,4.924,0,0,1,4.919,4.919V41.316H12.788a.984.984,0,0,0,0,1.967H33.446v1.967H1.967V43.284h5.9a.984.984,0,1,0,0-1.967h-5.9V22.626A4.924,4.924,0,0,1,6.886,17.707Z" transform="translate(591.805 994)" fill="#ff4d33"/>
  </g>
</svg>
