<svg xmlns="http://www.w3.org/2000/svg" xmlns:xlink="http://www.w3.org/1999/xlink" width="58" height="58" viewBox="0 0 58 58">
  <defs>
    <clipPath id="clip-path">
      <rect id="Rectangle_24" data-name="Rectangle 24" width="58" height="58" transform="translate(898 993)" fill="#fff"/>
    </clipPath>
  </defs>
  <g id="Mask_Group_7" data-name="Mask Group 7" transform="translate(-898 -993)" clip-path="url(#clip-path)">
    <g id="camper-van" transform="translate(898 993)">
      <path id="Path_2079" data-name="Path 2079" d="M1.129,68.871v1.882H59.462V68.871H1.129Z" transform="translate(-1.129 -12.419)" fill="#ff4d33"/>
      <path id="Path_2080" data-name="Path 2080" d="M51.871,50.995h6.651a.94.94,0,0,0,.941-.941V37.823a.95.95,0,0,0-.059-.331L55.132,26.1a6.616,6.616,0,0,0-6.167-4.274H46.29V19.946h1.882V18.065H46.186a6.586,6.586,0,1,0-9.2,0H34.827A2.791,2.791,0,0,0,35,17.124V11.478a2.826,2.826,0,0,0-2.823-2.823H26.532a2.8,2.8,0,0,0-1.882.734,2.8,2.8,0,0,0-1.882-.734H21.655a2.791,2.791,0,0,0,.173-.941V3.952a2.826,2.826,0,0,0-2.823-2.823H13.36a2.826,2.826,0,0,0-2.823,2.823V7.715a2.807,2.807,0,0,0,.207,1.05,2.817,2.817,0,0,0-2.089,2.713v5.645a2.791,2.791,0,0,0,.173.941H6.774v1.882H8.656v1.882H7.715a6.594,6.594,0,0,0-6.586,6.586v21.64a.94.94,0,0,0,.941.941H8.721a7.52,7.52,0,0,0,14.924,0h13.3a7.52,7.52,0,0,0,14.923,0ZM55.7,49.113V41.586h1.882v7.527ZM36.882,13.36a4.7,4.7,0,1,1,4.7,4.7A4.71,4.71,0,0,1,36.882,13.36ZM26.532,10.538h5.645a.941.941,0,0,1,.941.941v5.645a.941.941,0,0,1-.941.941H26.532a.941.941,0,0,1-.941-.941V11.478A.941.941,0,0,1,26.532,10.538ZM12.419,3.952a.941.941,0,0,1,.941-.941h5.645a.941.941,0,0,1,.941.941V7.715a.941.941,0,0,1-.941.941H13.36a.941.941,0,0,1-.941-.941ZM10.538,17.124V11.478a.941.941,0,0,1,.941-.941h11.29a.941.941,0,0,1,.941.941v5.645a.941.941,0,0,1-.941.941H11.478A.941.941,0,0,1,10.538,17.124Zm0,2.823H44.409v1.882H10.538ZM7.715,23.71H48.964a4.726,4.726,0,0,1,4.405,3.053l4.211,11.231V39.7H54.758a.94.94,0,0,0-.941.941v8.468H51.871a7.521,7.521,0,0,0-14.087-2.626.922.922,0,0,0,.04-.2V26.532a.94.94,0,0,0-.941-.941H19.946a.94.94,0,0,0-.941.941V38.763H8.656v1.882H19.005v2.436A7.51,7.51,0,0,0,8.721,49.113H6.774V39.7a.94.94,0,0,0-.941-.941H3.011V28.414A4.71,4.71,0,0,1,7.715,23.71ZM35.941,35H29.355V27.473h6.586Zm-8.468,0H20.887V27.473h6.586Zm-6.586,1.882H35.941v8.468H22.049a7.623,7.623,0,0,0-1.162-1.162Zm2.268,10.349H36.882a.929.929,0,0,0,.7-.326,7.45,7.45,0,0,0-.633,2.207h-13.3A7.494,7.494,0,0,0,23.156,47.231ZM3.011,40.645H4.892v8.468H3.011ZM16.183,55.7a5.645,5.645,0,1,1,5.645-5.645A5.651,5.651,0,0,1,16.183,55.7Zm28.226,0a5.645,5.645,0,1,1,5.645-5.645A5.651,5.651,0,0,1,44.409,55.7Z" transform="translate(-1.129 -1.129)" fill="#ff4d33"/>
      <path id="Path_2081" data-name="Path 2081" d="M52.312,55.323a3.763,3.763,0,1,0,3.763,3.763A3.767,3.767,0,0,0,52.312,55.323Zm0,5.645a1.882,1.882,0,1,1,1.882-1.882A1.884,1.884,0,0,1,52.312,60.968Z" transform="translate(-9.032 -10.161)" fill="#ff4d33"/>
      <path id="Path_2082" data-name="Path 2082" d="M18.441,55.323A3.763,3.763,0,1,0,22.2,59.086,3.767,3.767,0,0,0,18.441,55.323Zm0,5.645a1.882,1.882,0,1,1,1.882-1.882A1.884,1.884,0,0,1,18.441,60.968Z" transform="translate(-3.387 -10.161)" fill="#ff4d33"/>
      <path id="Path_2083" data-name="Path 2083" d="M48.36,41.774H60.591a.94.94,0,0,0,.9-1.211L59.073,32.5a2.806,2.806,0,0,0-2.7-2.012H48.36a.94.94,0,0,0-.941.941v9.409A.94.94,0,0,0,48.36,41.774Zm.941-9.409h7.068a.935.935,0,0,1,.9.671l2.057,6.856H49.3Z" transform="translate(-8.844 -6.022)" fill="#ff4d33"/>
      <path id="Path_2084" data-name="Path 2084" d="M47.419,46.29h3.763v1.882H47.419Z" transform="translate(-8.844 -8.656)" fill="#ff4d33"/>
      <path id="Path_2085" data-name="Path 2085" d="M8.844,41.774h8.468a.94.94,0,0,0,.941-.941V31.425a.94.94,0,0,0-.941-.941H8.844a.94.94,0,0,0-.941.941v9.409A.94.94,0,0,0,8.844,41.774Zm.941-9.409h6.586v7.527H9.785Z" transform="translate(-2.258 -6.022)" fill="#ff4d33"/>
      <path id="Path_2086" data-name="Path 2086" d="M23.145,14.677H14.677v1.882H22.2v1.882h1.882V15.618A.94.94,0,0,0,23.145,14.677Z" transform="translate(-3.387 -3.387)" fill="#ff4d33"/>
      <path id="Path_2087" data-name="Path 2087" d="M49.113,12.419a2.823,2.823,0,1,0,2.823,2.823A2.826,2.826,0,0,0,49.113,12.419Zm0,3.763a.941.941,0,1,1,.941-.941A.941.941,0,0,1,49.113,16.183Z" transform="translate(-8.656 -3.011)" fill="#ff4d33"/>
    </g>
  </g>
</svg>
