<svg id="Layer_1" data-name="Layer 1" xmlns="http://www.w3.org/2000/svg" width="8.4667mm" height="8.4667mm" viewBox="0 0 24 24"><defs><style>.cls-1{fill:#292d32;}</style></defs><title>cross</title><path class="cls-1" d="M3.0439,23.3261A2.3471,2.3471,0,0,1,1.3668,22.63a2.3875,2.3875,0,0,1,0-3.3543L19.2777,1.3648A2.3719,2.3719,0,0,1,22.632,4.7192L4.7211,22.63A2.2955,2.2955,0,0,1,3.0439,23.3261Z"/><path class="cls-1" d="M20.9548,23.3261a2.3469,2.3469,0,0,1-1.6771-.6962L1.3668,4.7192A2.3719,2.3719,0,0,1,4.7211,1.3648L22.632,19.2756a2.3875,2.3875,0,0,1,0,3.3543A2.3471,2.3471,0,0,1,20.9548,23.3261Z"/></svg>