<svg id="Layer_1" data-name="Layer 1" xmlns="http://www.w3.org/2000/svg" width="8.4667mm" height="8.4667mm" viewBox="0 0 24 24"><defs><style>.cls-1{fill:#ff4d33;}</style></defs><title>add location</title><path class="cls-1" d="M20.6188,8.7a8.6077,8.6077,0,0,0-8.62-6.7h-.01a8.6133,8.6133,0,0,0-8.61,6.69c-1.18,5.16,1.98,9.53,4.84,12.29a5.4221,5.4221,0,0,0,7.55,0C18.6288,18.22,21.7888,13.86,20.6188,8.7Zm-5.87,3.05h-2v2a.75.75,0,0,1-1.5,0v-2h-2a.75.75,0,0,1,0-1.5h2v-2a.75.75,0,0,1,1.5,0v2h2a.75.75,0,0,1,0,1.5Z"/></svg>